<?xml version="1.0"?>
<svg xmlns="http://www.w3.org/2000/svg" id="Layer_1" data-name="Layer 1" viewBox="0 0 512 512" width="512px" height="512px" class=""><g><title class="active-path" style="fill:#FFCB08" data-old_color="#000000">Strategy target</title><path d="M223,486c108.626,0,197-88.374,197-197a195.208,195.208,0,0,0-28.93-102.829l8.451,2.112a7,7,0,0,0,6.647-1.841L483.95,108.66a7,7,0,0,0-4.261-11.915l-58.635-5.8-5.8-58.635A7,7,0,0,0,403.34,28.05l-77.782,77.782a7,7,0,0,0-1.841,6.647l2.112,8.45A195.214,195.214,0,0,0,223,92C114.374,92,26,180.374,26,289S114.374,486,223,486ZM399.071,173.74l-22.458-5.615-.022,0-18.249-4.563,58.919-58.918,46.329,4.582Zm3.708-125.33,4.582,46.329-58.919,58.919-4.553-18.214c-.008-.034-.017-.068-.026-.1l-5.6-22.413ZM223,106a181.379,181.379,0,0,1,107.893,35.182l6,24.021L218.05,284.05a7,7,0,0,0,9.9,9.9L346.8,175.1l24.02,6A181.373,181.373,0,0,1,406,289c0,100.907-82.093,183-183,183S40,389.907,40,289,122.093,106,223,106Z" data-original="#000000" class="active-path" data-old_color="#000000" fill="#ffcb08"/><path d="M223,426c75.542,0,137-61.458,137-137a136,136,0,0,0-26.048-80.382,7,7,0,0,0-11.331,8.223,122.981,122.981,0,1,1-27.329-27.365,7,7,0,1,0,8.238-11.32A135.978,135.978,0,0,0,223,152c-75.542,0-137,61.458-137,137S147.458,426,223,426Z" data-original="#000000" class="active-path" data-old_color="#000000" fill="#ffcb08"/><path d="M223,252a37,37,0,1,0,37,37,7,7,0,0,0-14,0,23,23,0,1,1-23-23,7,7,0,0,0,0-14Z" data-original="#000000" class="active-path" data-old_color="#000000" fill="#ffcb08"/></g> </svg>
